<?xml version="1.0" encoding="UTF-8" standalone="no"?>
<svg
   viewBox="0 0 64 64"
   width="64px"
   height="64px"
   version="1.1"
   id="svg1"
   sodipodi:docname="icons8-binoculars-64.svg"
   inkscape:version="1.3.2 (091e20e, 2023-11-25, custom)"
   xmlns:inkscape="http://www.inkscape.org/namespaces/inkscape"
   xmlns:sodipodi="http://sodipodi.sourceforge.net/DTD/sodipodi-0.dtd"
   xmlns="http://www.w3.org/2000/svg"
   xmlns:svg="http://www.w3.org/2000/svg">
  <defs
     id="defs1" />
  <sodipodi:namedview
     id="namedview1"
     pagecolor="#ffffff"
     bordercolor="#000000"
     borderopacity="0.25"
     inkscape:showpageshadow="2"
     inkscape:pageopacity="0.0"
     inkscape:pagecheckerboard="0"
     inkscape:deskcolor="#d1d1d1"
     inkscape:zoom="13.921875"
     inkscape:cx="31.964085"
     inkscape:cy="32"
     inkscape:window-width="1920"
     inkscape:window-height="1129"
     inkscape:window-x="-8"
     inkscape:window-y="-8"
     inkscape:window-maximized="1"
     inkscape:current-layer="svg1" />
  <path
     d="M 13 7 L 13 11 L 24 11 L 24 7 L 13 7 z M 40 7 L 40 11 L 51 11 L 51 7 L 40 7 z M 10 13 C 9 41 6 46 6 46 L 28 46 L 28 35 L 36.033203 35 L 36.033203 46 L 58.033203 46 C 58.033203 46 55.033203 41 54.033203 13 L 37.033203 13 L 37.033203 20 L 27 20 L 27 13 L 10 13 z M 26 25 L 27 25 L 27 26 L 29 26 L 29 25 L 31 25 L 31 26 L 33 26 L 33 25 L 35.033203 25 L 35.033203 26 L 37.033203 26 L 37.033203 25 L 38.033203 25 C 38.585203 25 39.033203 25.448 39.033203 26 L 39.033203 28 C 39.033203 28.552 38.585203 29 38.033203 29 L 26 29 C 25.448 29 25 28.552 25 28 L 25 26 C 25 25.448 25.448 25 26 25 z M 4 49 L 4 56 L 28.996094 56 L 28.996094 49 L 4 49 z M 35 49 L 35 56 L 59.996094 56 L 59.996094 49 L 35 49 z"
     id="path1"
     style="fill:#00b7fa;fill-opacity:1" />
</svg>
