<?xml version="1.0" encoding="UTF-8" standalone="no"?>
<svg
   viewBox="0 0 64 64"
   width="128px"
   height="128px"
   version="1.1"
   id="svg1"
   sodipodi:docname="refresh.svg"
   inkscape:version="1.3.2 (091e20e, 2023-11-25, custom)"
   xmlns:inkscape="http://www.inkscape.org/namespaces/inkscape"
   xmlns:sodipodi="http://sodipodi.sourceforge.net/DTD/sodipodi-0.dtd"
   xmlns="http://www.w3.org/2000/svg"
   xmlns:svg="http://www.w3.org/2000/svg">
  <defs
     id="defs1" />
  <sodipodi:namedview
     id="namedview1"
     pagecolor="#ffffff"
     bordercolor="#000000"
     borderopacity="0.25"
     inkscape:showpageshadow="2"
     inkscape:pageopacity="0.0"
     inkscape:pagecheckerboard="true"
     inkscape:deskcolor="#ffffff"
     inkscape:zoom="6.9609375"
     inkscape:cx="63.928171"
     inkscape:cy="64"
     inkscape:window-width="1920"
     inkscape:window-height="1129"
     inkscape:window-x="-8"
     inkscape:window-y="-8"
     inkscape:window-maximized="1"
     inkscape:current-layer="svg1" />
  <path
     d="M 32.828125 5.1835938 C 28.120188 5.0832812 23.391969 6.2228125 19.261719 8.4765625 C 13.773719 11.513562 9.4398906 16.499078 7.2128906 22.330078 C 4.9248906 28.156078 4.9230781 34.743562 6.9550781 40.601562 C 8.9670781 46.487563 13.181672 51.529719 18.513672 54.636719 C 23.830672 57.775719 30.268406 58.970234 36.316406 57.865234 C 42.371406 56.824234 48.032828 53.602047 51.923828 48.873047 C 55.855828 44.181047 58.018094 38.087 57.996094 32 L 54.003906 32 C 53.935906 37.165 52.0405 42.240859 48.6875 46.130859 C 45.3655 50.052859 40.599078 52.643641 35.580078 53.431641 C 30.543078 54.278641 25.258313 53.193547 20.945312 50.560547 C 16.611313 47.949547 13.230641 43.771516 11.681641 38.978516 C 10.111641 34.217516 10.188562 28.865281 12.101562 24.238281 C 13.956563 19.593281 17.491813 15.658594 21.882812 13.308594 C 26.282812 11.000594 31.493031 10.272078 36.332031 11.330078 C 40.791859 12.283565 44.870366 14.771112 47.828125 18.220703 L 45.390625 21.806641 L 57.884766 21.513672 L 53.556641 9.7890625 L 51.265625 13.162109 C 47.52829 9.3989516 42.70238 6.7312652 37.505859 5.7011719 C 35.963609 5.3879219 34.397438 5.2170312 32.828125 5.1835938 z"
     id="path1"
     style="fill:#00b7fa;fill-opacity:1" />
</svg>
