<?xml version="1.0" encoding="UTF-8" standalone="no"?>
<svg
   width="100%"
   height="100%"
   viewBox="0 0 1182 1182"
   version="1.1"
   xml:space="preserve"
   style="fill-rule:evenodd;clip-rule:evenodd;stroke-linecap:round;stroke-linejoin:round;stroke-miterlimit:1.5;"
   id="svg1"
   sodipodi:docname="voting.svg"
   inkscape:version="1.3.2 (091e20e, 2023-11-25, custom)"
   xmlns:inkscape="http://www.inkscape.org/namespaces/inkscape"
   xmlns:sodipodi="http://sodipodi.sourceforge.net/DTD/sodipodi-0.dtd"
   xmlns="http://www.w3.org/2000/svg"
   xmlns:svg="http://www.w3.org/2000/svg"><defs
   id="defs1" /><sodipodi:namedview
   id="namedview1"
   pagecolor="#ffffff"
   bordercolor="#000000"
   borderopacity="0.25"
   inkscape:showpageshadow="2"
   inkscape:pageopacity="0.0"
   inkscape:pagecheckerboard="true"
   inkscape:deskcolor="#d1d1d1"
   inkscape:zoom="0.75380711"
   inkscape:cx="589.0101"
   inkscape:cy="589.6734"
   inkscape:window-width="1920"
   inkscape:window-height="1129"
   inkscape:window-x="-8"
   inkscape:window-y="-8"
   inkscape:window-maximized="1"
   inkscape:current-layer="g1" />
    <g
   transform="matrix(2.80556,0,0,2.80556,-3941,-324.06)"
   id="g1">
        <path
   d="M 1813.21,425 V 254.178 L 1603.62,463.76 c -4.86,4.869 -11.29,7.252 -17.67,7.147 -6.39,0.105 -12.81,-2.278 -17.68,-7.147 l -96.91,-96.914 c -9.54,-9.535 -9.54,-25.017 0,-34.552 l 34.55,-34.552 c 9.53,-9.534 25.01,-9.534 34.55,0 l 27.81,27.81 c 12.13,11.763 23.88,10.605 35.35,0 l 174.3,-174.299 -0.4,-0.339 C 1760.35,136.609 1738.28,128 1714.21,128 h -198 c -54.64,0 -99,44.36 -99,99 v 198 c 0,54.64 44.36,99 99,99 h 198 c 54.64,0 99,-44.36 99,-99 z"
   style="fill:none;stroke:#ffffff;stroke-width:23.76px"
   id="path1"
   inkscape:highlight-color="#ffffff" />
    </g>
</svg>
